<svg xmlns="http://www.w3.org/2000/svg" viewBox="0 0 800 800" role="img" aria-label="Zyre gradient mark">
  <defs>
    <style>
      :root {
        --zyre-philippine-blue: #0039A9;
        --zyre-azure-traditional: #027DFF;
        --zyre-brilliant-azure: #3399FF;
        --zyre-baby-blue: #88D1F1;
        --zyre-tropical-blue: #41AADE;
        --zyre-deep-aqua-blue: #1392D3;
      }
    </style>

    <linearGradient id="zyre-left-gradient" x1="91" y1="641" x2="468" y2="96" gradientUnits="userSpaceOnUse">
      <stop offset="0" stop-color="var(--zyre-baby-blue, #88D1F1)"/>
      <stop offset="0.18" stop-color="var(--zyre-tropical-blue, #41AADE)"/>
      <stop offset="0.55" stop-color="var(--zyre-brilliant-azure, #3399FF)"/>
      <stop offset="1" stop-color="var(--zyre-baby-blue, #88D1F1)"/>
    </linearGradient>

    <linearGradient id="zyre-right-gradient" x1="421" y1="378" x2="704" y2="640" gradientUnits="userSpaceOnUse">
      <stop offset="0" stop-color="var(--zyre-azure-traditional, #027DFF)"/>
      <stop offset="0.38" stop-color="var(--zyre-deep-aqua-blue, #1392D3)"/>
      <stop offset="1" stop-color="var(--zyre-philippine-blue, #0039A9)"/>
    </linearGradient>
  </defs>

  <path
    d="M405.9 96.4
       C397.7 93.2 388.7 95.5 383.3 103.3
       L91.8 613.1
       C84.5 625.9 91.7 641.8 106.4 641.8
       L220.7 641.8
       C227.8 641.8 234.5 637.9 238.1 631.8
       L467.3 223.1
       C471.2 216.2 471.1 207.7 467.1 200.8
       L416.9 107.4
       C414.3 102.5 410.4 98.3 405.9 96.4 Z"
    fill="url(#zyre-left-gradient)"/>

  <path
    d="M493.2 252.1
       L421.7 376.7
       C418.0 383.1 418.1 391.0 421.8 397.4
       L559.6 632.0
       C563.2 638.1 569.8 641.8 576.9 641.8
       L688.2 641.8
       C703.5 641.8 710.7 624.9 702.5 612.0
       L501.8 252.4
       C499.9 249.0 495.1 248.7 493.2 252.1 Z"
    fill="url(#zyre-right-gradient)"/>
</svg>
