<svg xmlns="http://www.w3.org/2000/svg" width="1024" height="1024" viewBox="0 0 1024 1024" fill="none">
  <defs>
    <linearGradient id="bg" x1="140" y1="100" x2="884" y2="924" gradientUnits="userSpaceOnUse">
      <stop offset="0" stop-color="#121826"/>
      <stop offset="0.55" stop-color="#090E18"/>
      <stop offset="1" stop-color="#04070D"/>
    </linearGradient>

    <radialGradient id="coreGlow" cx="0" cy="0" r="1" gradientUnits="userSpaceOnUse" gradientTransform="translate(512 500) rotate(90) scale(360)">
      <stop offset="0" stop-color="#60A5FA" stop-opacity="0.95"/>
      <stop offset="0.26" stop-color="#38BDF8" stop-opacity="0.60"/>
      <stop offset="0.58" stop-color="#1D4ED8" stop-opacity="0.16"/>
      <stop offset="1" stop-color="#0F172A" stop-opacity="0"/>
    </radialGradient>

    <linearGradient id="trace" x1="180" y1="180" x2="844" y2="844" gradientUnits="userSpaceOnUse">
      <stop offset="0" stop-color="#38BDF8"/>
      <stop offset="0.5" stop-color="#60A5FA"/>
      <stop offset="1" stop-color="#2563EB"/>
    </linearGradient>

    <filter id="softGlow" x="-50%" y="-50%" width="200%" height="200%">
      <feGaussianBlur stdDeviation="10" result="b"/>
      <feMerge>
        <feMergeNode in="b"/>
        <feMergeNode in="SourceGraphic"/>
      </feMerge>
    </filter>

    <filter id="bigGlow" x="-50%" y="-50%" width="200%" height="200%">
      <feGaussianBlur stdDeviation="28" result="b"/>
      <feMerge>
        <feMergeNode in="b"/>
        <feMergeNode in="SourceGraphic"/>
      </feMerge>
    </filter>

    <clipPath id="iconClip">
      <rect x="0" y="0" width="1024" height="1024" rx="232"/>
    </clipPath>
  </defs>

  <!-- full-bleed app icon -->
  <rect x="0" y="0" width="1024" height="1024" rx="232" fill="url(#bg)"/>
  <rect x="4" y="4" width="1016" height="1016" rx="228" stroke="#1E293B" stroke-width="8"/>

  <!-- ambient center glow -->
  <circle cx="512" cy="500" r="340" fill="url(#coreGlow)"/>

  <!-- enlarged subtle pcb traces -->
  <g clip-path="url(#iconClip)" opacity="0.34">
    <g stroke="#15304F" stroke-width="12" stroke-linecap="round" stroke-linejoin="round">
      <path d="M86 282H332L414 364H610L690 286H938"/>
      <path d="M86 744H312L392 664H632L714 744H938"/>
      <path d="M250 82V286"/>
      <path d="M774 82V286"/>
      <path d="M250 738V942"/>
      <path d="M774 738V942"/>
      <path d="M74 512H274L372 414H456"/>
      <path d="M950 512H750L652 610H568"/>
    </g>
    <g stroke="url(#trace)" stroke-opacity="0.26" stroke-width="5" stroke-linecap="round">
      <path d="M86 282H332L414 364H610L690 286H938"/>
      <path d="M86 744H312L392 664H632L714 744H938"/>
      <path d="M74 512H274L372 414H456"/>
      <path d="M950 512H750L652 610H568"/>
    </g>
    <g fill="#2563EB" opacity="0.52">
      <circle cx="332" cy="282" r="10"/>
      <circle cx="610" cy="364" r="10"/>
      <circle cx="312" cy="744" r="10"/>
      <circle cx="632" cy="664" r="10"/>
      <circle cx="274" cy="512" r="10"/>
      <circle cx="750" cy="512" r="10"/>
    </g>
  </g>

  <!-- larger command ring -->
  <g filter="url(#bigGlow)">
    <circle cx="512" cy="512" r="232" fill="#07111F"/>
    <circle cx="512" cy="512" r="232" stroke="#1D4ED8" stroke-opacity="0.72" stroke-width="18"/>
    <circle cx="512" cy="512" r="232" stroke="#93C5FD" stroke-opacity="0.78" stroke-width="5" stroke-dasharray="2 24" stroke-linecap="round"/>
  </g>

  <!-- thicker spokes -->
  <g stroke="url(#trace)" stroke-width="18" stroke-linecap="round" filter="url(#softGlow)" opacity="0.95">
    <path d="M512 280V226"/>
    <path d="M512 744V798"/>
    <path d="M280 512H226"/>
    <path d="M744 512H798"/>
  </g>

  <!-- larger >_ terminal -->
  <g filter="url(#bigGlow)">
    <rect x="332" y="374" width="360" height="276" rx="52" fill="#08111E" stroke="#2563EB" stroke-width="12"/>
    <rect x="332" y="374" width="360" height="276" rx="52" stroke="#93C5FD" stroke-opacity="0.26" stroke-width="4"/>

    <path d="M430 454L520 512L430 570" stroke="#E6F4FF" stroke-width="30" stroke-linecap="round" stroke-linejoin="round"/>
    <path d="M564 560H644" stroke="#E6F4FF" stroke-width="30" stroke-linecap="round"/>

    <circle cx="512" cy="512" r="286" stroke="#38BDF8" stroke-opacity="0.07" stroke-width="2"/>
  </g>

  <!-- subtle top sheen -->
  <path d="M154 184C252 94 380 46 512 46C644 46 772 94 870 184" stroke="#E2E8F0" stroke-opacity="0.055" stroke-width="22" stroke-linecap="round"/>
</svg>
